<?xml version="1.0" encoding="UTF-8" standalone="no"?>
<svg width="8px" height="8px" viewBox="0 0 8 8" version="1.1" xmlns="http://www.w3.org/2000/svg" xmlns:xlink="http://www.w3.org/1999/xlink">
    <!-- Generator: Sketch 3.8.1 (29687) - http://www.bohemiancoding.com/sketch -->
    <title>Rectangle 2</title>
    <desc>Created with Sketch.</desc>
    <defs></defs>
    <g id="Home" stroke="none" stroke-width="1" fill="none" fill-rule="evenodd">
        <g id="v3" transform="translate(-549.000000, -702.000000)" fill="#34363A">
            <g id="2" transform="translate(29.000000, -12.000000)">
                <g id="Hero" transform="translate(35.000000, 0.000000)">
                    <g id="Backstory-post" transform="translate(25.000000, 704.000000)">
                        <path d="M463.013174,14 L460.209167,11.1959929 C459.930099,10.9169247 459.932011,10.4770197 460.204515,10.2045152 C460.47892,9.93011087 460.920919,9.93409336 461.195993,10.2091669 L464,13.013174 L466.804007,10.2091669 C467.083075,9.93009864 467.52298,9.93201072 467.795485,10.2045152 C468.069889,10.4789196 468.065907,10.9209194 467.790833,11.1959929 L464.986826,14 L467.790833,16.8040071 C468.069901,17.0830753 468.067989,17.5229803 467.795485,17.7954848 C467.52108,18.0698891 467.079081,18.0659066 466.804007,17.7908331 L464,14.986826 L461.195993,17.7908331 C460.916925,18.0699014 460.47702,18.0679893 460.204515,17.7954848 C459.930111,17.5210804 459.934093,17.0790806 460.209167,16.8040071 L463.013174,14 L463.013174,14 Z" id="Rectangle-2"></path>
                    </g>
                </g>
            </g>
        </g>
    </g>
</svg>