<?xml version="1.0" encoding="UTF-8" standalone="no"?>
<svg width="24px" height="14px" viewBox="0 0 24 14" version="1.1" xmlns="http://www.w3.org/2000/svg" xmlns:xlink="http://www.w3.org/1999/xlink">
    <!-- Generator: Sketch 3.8.1 (29687) - http://www.bohemiancoding.com/sketch -->
    <title>Artboard 2</title>
    <desc>Created with Sketch.</desc>
    <defs></defs>
    <g id="Page-1" stroke="none" stroke-width="1" fill="none" fill-rule="evenodd" fill-opacity="0.5">
        <g id="Artboard-2" fill="#34363A">
            <path d="M4.20608214,12.1933094 C3.74603983,12.7060134 3.08700121,13 2.39762111,13 L1.33430288,13 C1.14952058,13 1,12.8505522 1,12.666197 L1,11.8316895 C1,11.6473342 1.14952058,11.4978865 1.33430288,11.4978865 L2.39762111,11.4978865 C2.6592138,11.4978865 2.90932592,11.3860734 3.08399439,11.1916277 L5.84752841,8.10885869 L6.85754406,9.23544384 L4.20608214,12.1933094 Z M23.0730104,12.666197 C23.0730104,12.8505522 22.9232165,13 22.7384342,13 L21.675116,13 C20.9846425,13 20.3272439,12.7068315 19.8669283,12.1933094 L17.215193,9.23544384 L18.225482,8.10885869 L20.9892894,11.1919004 C21.1636845,11.3866188 21.4132499,11.4978865 21.675116,11.4978865 L22.7384342,11.4978865 C22.9232165,11.4978865 23.0730104,11.6473342 23.0730104,11.8316895 L23.0730104,12.666197 Z M23.0730104,2.16858325 C23.0730104,2.3529385 22.9232165,2.50238626 22.7384342,2.50238626 L21.675116,2.50238626 C21.4137966,2.50238626 21.1634111,2.61392664 20.989016,2.80837235 L13.5952641,11.0560884 C12.9575465,11.7676015 11.8740007,11.990955 10.953096,11.4542521 C10.7737806,11.3498023 10.6160597,11.2107177 10.4774729,11.0560884 L3.0834477,2.80837235 C2.90877923,2.61365392 2.65948714,2.50238626 2.39762111,2.50238626 L1.33430288,2.50238626 C1.14952058,2.50238626 1,2.3529385 1,2.16858325 L1,1.33380301 C1,1.14944775 1.14952058,1 1.33430288,1 L2.39762111,1 C3.08809459,1 3.74549314,1.29344121 4.2058088,1.8066906 L11.6001074,10.0546793 C11.8250716,10.3061224 12.2476654,10.3061224 12.472903,10.0546793 L19.8666549,1.80696332 C20.3266972,1.29398664 20.9857359,1 21.675116,1 L22.7384342,1 C22.9232165,1 23.0730104,1.14944775 23.0730104,1.33380301 L23.0730104,2.16858325 Z" id="Path"></path>
        </g>
    </g>
</svg>